<?xml version="1.0" encoding="UTF-8" standalone="no"?>
<svg
   xmlns:dc="http://purl.org/dc/elements/1.1/"
   xmlns:cc="http://creativecommons.org/ns#"
   xmlns:rdf="http://www.w3.org/1999/02/22-rdf-syntax-ns#"
   xmlns:svg="http://www.w3.org/2000/svg"
   xmlns="http://www.w3.org/2000/svg"
   xmlns:sodipodi="http://sodipodi.sourceforge.net/DTD/sodipodi-0.dtd"
   xmlns:inkscape="http://www.inkscape.org/namespaces/inkscape"
   inkscape:export-ydpi="96"
   inkscape:export-xdpi="96"
   inkscape:export-filename="C:\Users\leshop\Desktop\doc\grabtobe\로고\logo_가로_메인컬러.png"
   version="1.1"
   id="svg954"
   xml:space="preserve"
   width="793.70667"
   height="1122.52"
   viewBox="0 0 793.70667 1122.52"
   sodipodi:docname="logo_가로_메인컬러.svg"
   inkscape:version="1.0 (4035a4fb49, 2020-05-01)"><metadata
     id="metadata960"><rdf:RDF><cc:Work
         rdf:about=""><dc:format>image/svg+xml</dc:format><dc:type
           rdf:resource="http://purl.org/dc/dcmitype/StillImage" /><dc:title></dc:title></cc:Work></rdf:RDF></metadata><defs
     id="defs958"><clipPath
       clipPathUnits="userSpaceOnUse"
       id="clipPath972"><path
         d="M 0,841.89 H 595.28 V 0 H 0 Z"
         id="path970" /></clipPath><clipPath
       clipPathUnits="userSpaceOnUse"
       id="clipPath1008"><path
         d="M 0,841.89 H 595.28 V 0 H 0 Z"
         id="path1006" /></clipPath><clipPath
       clipPathUnits="userSpaceOnUse"
       id="clipPath1036"><path
         d="M 0,841.89 H 595.28 V 0 H 0 Z"
         id="path1034" /></clipPath></defs><sodipodi:namedview
     inkscape:document-rotation="0"
     pagecolor="#ffffff"
     bordercolor="#666666"
     borderopacity="1"
     objecttolerance="10"
     gridtolerance="10"
     guidetolerance="10"
     inkscape:pageopacity="0"
     inkscape:pageshadow="2"
     inkscape:window-width="1764"
     inkscape:window-height="895"
     id="namedview956"
     showgrid="false"
     inkscape:zoom="0.7572248"
     inkscape:cx="464.75704"
     inkscape:cy="585.89161"
     inkscape:window-x="94"
     inkscape:window-y="58"
     inkscape:window-maximized="0"
     inkscape:current-layer="g962"
     inkscape:pagecheckerboard="true"
     showguides="true"
     inkscape:guide-bbox="true" /><g
     id="g962"
     inkscape:groupmode="layer"
     inkscape:label="logo_outline"
     transform="matrix(1.3333333,0,0,-1.3333333,0,1122.52)"><g
       style="fill:#3f62a7;fill-opacity:1"
       id="g1231"
       transform="matrix(1.8403857,0,0,1.8403857,-20.433711,-657.59242)"><g
         style="fill:#3f62a7;fill-opacity:1"
         transform="translate(108.1495,567.16948)"
         id="g1038"><path
           id="path1040"
           style="fill:#3f62a7;fill-opacity:1;fill-rule:nonzero;stroke:none"
           d="m 0,0 c -0.408,0.192 -0.727,0.452 -0.955,0.78 -0.228,0.328 -0.358,0.692 -0.39,1.092 h 0.564 C -0.717,1.432 -0.511,1.04 -0.162,0.696 0.186,0.352 0.715,0.18 1.428,0.18 1.844,0.18 2.205,0.256 2.514,0.408 2.821,0.56 3.059,0.768 3.228,1.032 3.396,1.296 3.479,1.588 3.479,1.908 3.479,2.316 3.381,2.64 3.186,2.88 2.989,3.12 2.745,3.3 2.453,3.42 2.161,3.54 1.768,3.668 1.271,3.804 0.727,3.948 0.289,4.092 -0.043,4.236 c -0.332,0.144 -0.611,0.366 -0.84,0.666 -0.228,0.3 -0.342,0.71 -0.342,1.23 0,0.4 0.106,0.766 0.319,1.098 C -0.695,7.562 -0.393,7.824 0,8.016 0.391,8.208 0.844,8.304 1.355,8.304 2.1,8.304 2.699,8.12 3.155,7.752 3.611,7.384 3.883,6.932 3.971,6.396 H 3.396 C 3.348,6.612 3.241,6.832 3.077,7.056 2.913,7.28 2.682,7.466 2.381,7.614 2.082,7.762 1.723,7.836 1.307,7.836 0.747,7.836 0.275,7.682 -0.109,7.374 -0.492,7.066 -0.685,6.656 -0.685,6.144 c 0,-0.408 0.1,-0.734 0.3,-0.978 C -0.185,4.922 0.061,4.738 0.354,4.614 0.645,4.49 1.039,4.364 1.535,4.236 2.088,4.084 2.525,3.938 2.85,3.798 3.174,3.658 3.449,3.438 3.678,3.138 3.905,2.838 4.02,2.432 4.02,1.92 4.02,1.544 3.92,1.188 3.719,0.852 3.52,0.516 3.225,0.242 2.838,0.03 2.449,-0.182 1.979,-0.288 1.428,-0.288 0.883,-0.288 0.407,-0.192 0,0" /></g><g
         style="fill:#3f62a7;fill-opacity:1"
         transform="translate(137.5616,567.81738)"
         id="g1042"><path
           id="path1044"
           style="fill:#3f62a7;fill-opacity:1;fill-rule:nonzero;stroke:none"
           d="M 0,0 C 0.535,0.312 0.957,0.756 1.266,1.332 1.573,1.908 1.728,2.58 1.728,3.348 1.728,4.124 1.573,4.8 1.266,5.376 0.957,5.952 0.535,6.396 0,6.708 -0.537,7.02 -1.137,7.176 -1.801,7.176 -2.465,7.176 -3.064,7.02 -3.601,6.708 -4.137,6.396 -4.561,5.952 -4.873,5.376 -5.185,4.8 -5.34,4.124 -5.34,3.348 c 0,-0.768 0.155,-1.44 0.467,-2.016 0.312,-0.576 0.736,-1.02 1.272,-1.332 0.537,-0.312 1.136,-0.468 1.8,-0.468 0.664,0 1.264,0.156 1.801,0.468 m -3.9,-0.402 c -0.624,0.364 -1.113,0.874 -1.465,1.53 -0.352,0.656 -0.528,1.396 -0.528,2.22 0,0.832 0.176,1.574 0.528,2.226 0.352,0.652 0.841,1.16 1.465,1.524 0.624,0.364 1.324,0.546 2.099,0.546 0.777,0 1.477,-0.182 2.1,-0.546 C 0.924,6.734 1.411,6.226 1.764,5.574 2.115,4.922 2.291,4.18 2.291,3.348 2.291,2.524 2.115,1.784 1.764,1.128 1.411,0.472 0.924,-0.038 0.299,-0.402 c -0.623,-0.364 -1.323,-0.546 -2.1,-0.546 -0.775,0 -1.475,0.182 -2.099,0.546" /></g><g
         style="fill:#3f62a7;fill-opacity:1"
         transform="translate(164.046,575.38918)"
         id="g1046"><path
           id="path1048"
           style="fill:#3f62a7;fill-opacity:1;fill-rule:nonzero;stroke:none"
           d="m 0,0 v -0.456 h -3.805 v -3.516 h 3.325 v -0.456 h -3.325 v -3.996 h -0.54 V 0 Z" /></g><g
         style="fill:#3f62a7;fill-opacity:1"
         transform="translate(188.3458,575.38918)"
         id="g1050"><path
           id="path1052"
           style="fill:#3f62a7;fill-opacity:1;fill-rule:nonzero;stroke:none"
           d="m 0,0 v -0.456 h -2.399 v -7.968 h -0.54 v 7.968 H -5.34 V 0 Z" /></g><g
         style="fill:#3f62a7;fill-opacity:1"
         transform="translate(208.3868,567.42138)"
         id="g1054"><path
           id="path1056"
           style="fill:#3f62a7;fill-opacity:1;fill-rule:nonzero;stroke:none"
           d="M 0,0 H 3.132 V -0.456 H -0.54 V 7.968 H 0 Z" /></g><g
         style="fill:#3f62a7;fill-opacity:1"
         transform="translate(235.5665,569.58158)"
         id="g1058"><path
           id="path1060"
           style="fill:#3f62a7;fill-opacity:1;fill-rule:nonzero;stroke:none"
           d="M 0,0 -1.823,4.908 -3.659,0 Z m 0.168,-0.456 h -3.995 l -0.805,-2.16 H -5.22 l 3.096,8.232 h 0.601 L 1.561,-2.616 H 0.973 Z" /></g><g
         style="fill:#3f62a7;fill-opacity:1"
         transform="translate(260.9415,567.91948)"
         id="g1062"><path
           id="path1064"
           style="fill:#3f62a7;fill-opacity:1;fill-rule:nonzero;stroke:none"
           d="m 0,0 c 0.388,0.324 0.582,0.77 0.582,1.338 0,0.56 -0.198,1.006 -0.595,1.338 -0.395,0.332 -0.937,0.498 -1.626,0.498 h -2.063 v -3.66 h 2.099 c 0.68,0 1.214,0.162 1.603,0.486 m -3.702,3.642 h 2.112 c 0.632,0 1.117,0.15 1.458,0.45 0.34,0.3 0.51,0.714 0.51,1.242 0,0.512 -0.168,0.916 -0.504,1.212 C -0.462,6.842 -0.971,6.99 -1.65,6.99 H -3.702 Z M 0.624,2.682 C 0.955,2.29 1.122,1.83 1.122,1.302 1.122,0.87 1.02,0.484 0.815,0.144 0.611,-0.196 0.308,-0.464 -0.097,-0.66 -0.5,-0.856 -0.99,-0.954 -1.566,-0.954 H -4.242 V 7.47 h 2.628 c 0.84,0 1.473,-0.194 1.902,-0.582 C 0.716,6.5 0.93,5.998 0.93,5.382 0.93,4.846 0.786,4.412 0.498,4.08 0.21,3.748 -0.158,3.522 -0.606,3.402 -0.118,3.314 0.292,3.074 0.624,2.682" /></g><g
         style="fill:#3f62a7;fill-opacity:1"
         transform="translate(134.8506,589.59868)"
         id="g1066"><path
           id="path1068"
           style="fill:#3f62a7;fill-opacity:1;fill-rule:nonzero;stroke:none"
           d="m 0,0 c -4.66,0 -8.438,3.777 -8.438,8.438 0,4.66 3.778,8.437 8.438,8.437 4.66,0 8.438,-3.777 8.438,-8.437 C 8.438,3.777 4.66,0 0,0 M 8.877,23.083 V 20.978 C 6.367,22.757 3.311,23.813 0,23.813 c -8.491,0 -15.375,-6.884 -15.375,-15.375 0,-8.492 6.884,-15.376 15.375,-15.376 3.311,0 6.367,1.056 8.877,2.835 v -2.252 h 6.5 v 29.438 z" /></g><g
         style="fill:#3f62a7;fill-opacity:1"
         transform="translate(168.7237,589.59868)"
         id="g1070"><path
           id="path1072"
           style="fill:#3f62a7;fill-opacity:1;fill-rule:nonzero;stroke:none"
           d="m 0,0 c -4.66,0 -8.438,3.777 -8.438,8.438 0,4.66 3.778,8.437 8.438,8.437 4.66,0 8.438,-3.777 8.438,-8.437 C 8.438,3.777 4.66,0 0,0 m 0,23.813 c -3.326,0 -6.397,-1.068 -8.913,-2.863 v 10.537 h -6.501 V -6.367 h 6.501 v 2.292 C -6.397,-5.87 -3.326,-6.938 0,-6.938 c 8.492,0 15.375,6.884 15.375,15.376 0,8.491 -6.883,15.375 -15.375,15.375" /></g><g
         style="fill:#3f62a7;fill-opacity:1"
         transform="translate(113.8116,611.85848)"
         id="g1074"><path
           id="path1076"
           style="fill:#3f62a7;fill-opacity:1;fill-rule:nonzero;stroke:none"
           d="M 0,0 V 0.823 H -6.501 V -28.614 H 0 v 19.886 c 1.484,1.951 3.793,3.239 6.414,3.329 V 1.538 C 4.116,1.495 1.943,0.945 0,0" /></g><g
         style="fill:#3f62a7;fill-opacity:1"
         transform="translate(97.497104,586.00788)"
         id="g1078"><path
           id="path1080"
           style="fill:#3f62a7;fill-opacity:1;fill-rule:nonzero;stroke:none"
           d="m 0,0 c -0.094,-0.204 -0.195,-0.403 -0.305,-0.599 0.106,0.071 0.201,0.154 0.305,0.227 z" /></g><g
         style="fill:#3f62a7;fill-opacity:1"
         transform="translate(88.600604,589.72368)"
         id="g1082"><path
           id="path1084"
           style="fill:#3f62a7;fill-opacity:1;fill-rule:nonzero;stroke:none"
           d="m 0,0 c -4.66,0 -8.438,3.777 -8.438,8.438 0,4.66 3.778,8.437 8.438,8.437 4.66,0 8.438,-3.777 8.438,-8.437 C 8.438,3.777 4.66,0 0,0 M 15.397,-1.872 V 23.104 H 8.896 V 20.962 C 6.385,22.75 3.319,23.813 0,23.813 c -8.491,0 -15.375,-6.884 -15.375,-15.375 0,-8.492 6.884,-15.376 15.375,-15.376 3.184,0 6.14,0.967 8.592,2.624 0.109,0.195 0.211,0.394 0.304,0.598 V -4.087 C 8.793,-4.161 8.697,-4.244 8.592,-4.314 7.149,-6.894 4.397,-8.642 1.231,-8.642 c -1.629,0 -3.147,0.47 -4.436,1.27 h -9.16 c 2.576,-4.878 7.695,-8.208 13.596,-8.208 5.857,0 10.931,3.283 13.525,8.101 0.021,0.052 0.04,0.105 0.061,0.157 0.23,0.83 0.418,1.67 0.58,2.513 z" /></g><g
         style="fill:#3f62a7;fill-opacity:1"
         transform="translate(204.2872,613.50148)"
         id="g1086"><path
           id="path1088"
           style="fill:#3f62a7;fill-opacity:1;fill-rule:nonzero;stroke:none"
           d="M 0,0 V -1.648 H -8.8 V -30.45 h -1.979 V -1.648 H -19.58 V 0 Z" /></g><g
         style="fill:#3f62a7;fill-opacity:1"
         transform="translate(229.1475,586.13088)"
         id="g1090"><path
           id="path1092"
           style="fill:#3f62a7;fill-opacity:1;fill-rule:nonzero;stroke:none"
           d="m 0,0 c 1.965,1.128 3.512,2.733 4.642,4.815 1.129,2.082 1.694,4.511 1.694,7.287 0,2.805 -0.565,5.249 -1.694,7.331 -1.13,2.082 -2.677,3.687 -4.642,4.815 -1.966,1.127 -4.166,1.691 -6.601,1.691 -2.434,0 -4.634,-0.564 -6.599,-1.691 -1.966,-1.128 -3.521,-2.733 -4.664,-4.815 -1.145,-2.082 -1.716,-4.526 -1.716,-7.331 0,-2.776 0.571,-5.205 1.716,-7.287 1.143,-2.082 2.698,-3.687 4.664,-4.815 1.965,-1.127 4.165,-1.691 6.599,-1.691 2.435,0 4.635,0.564 6.601,1.691 m -14.301,-1.453 c -2.288,1.315 -4.077,3.159 -5.368,5.531 -1.291,2.37 -1.935,5.046 -1.935,8.024 0,3.007 0.644,5.689 1.935,8.046 1.291,2.357 3.08,4.193 5.368,5.509 2.288,1.316 4.855,1.974 7.7,1.974 2.845,0 5.413,-0.658 7.701,-1.974 2.288,-1.316 4.077,-3.152 5.368,-5.509 1.29,-2.357 1.935,-5.039 1.935,-8.046 C 8.403,9.124 7.758,6.448 6.468,4.078 5.177,1.706 3.388,-0.138 1.1,-1.453 c -2.288,-1.316 -4.856,-1.974 -7.701,-1.974 -2.845,0 -5.412,0.658 -7.7,1.974" /></g><g
         style="fill:#3f62a7;fill-opacity:1"
         transform="translate(258.8692,586.49958)"
         id="g1094"><path
           id="path1096"
           style="fill:#3f62a7;fill-opacity:1;fill-rule:nonzero;stroke:none"
           d="m 0,0 c 1.422,1.171 2.134,2.783 2.134,4.836 0,2.024 -0.726,3.637 -2.178,4.837 -1.452,1.2 -3.439,1.8 -5.962,1.8 h -7.568 V -1.756 h 7.7 c 2.493,0 4.451,0.585 5.874,1.756 m -13.574,13.165 h 7.744 c 2.316,0 4.099,0.542 5.346,1.627 1.247,1.084 1.87,2.581 1.87,4.489 0,1.85 -0.616,3.311 -1.848,4.381 -1.232,1.069 -3.096,1.605 -5.588,1.605 h -7.524 z M 2.288,9.695 C 3.505,8.278 4.114,6.615 4.114,4.707 4.114,3.145 3.74,1.75 2.992,0.521 2.244,-0.709 1.129,-1.677 -0.353,-2.386 -1.834,-3.094 -3.63,-3.448 -5.742,-3.448 h -9.812 v 30.45 h 9.636 c 3.08,0 5.404,-0.702 6.974,-2.104 1.569,-1.403 2.354,-3.217 2.354,-5.443 0,-1.938 -0.528,-3.507 -1.584,-4.707 -1.056,-1.2 -2.406,-2.017 -4.048,-2.451 1.788,-0.318 3.292,-1.186 4.51,-2.602" /></g><g
         style="fill:#3f62a7;fill-opacity:1"
         transform="translate(270.5508,611.85308)"
         id="g1098"><path
           id="path1100"
           style="fill:#3f62a7;fill-opacity:1;fill-rule:nonzero;stroke:none"
           d="m 0,0 v -12.709 h 12.32 v -1.648 H 0 v -12.796 h 13.64 v -1.649 H -1.979 V 1.648 H 13.64 V 0 Z" /></g></g></g></svg>
